<svg width="60" height="60" viewBox="0 0 60 60" fill="none" xmlns="http://www.w3.org/2000/svg">
<path d="M36.9 23.8C36.6 23.8 36.4 23.7 36.2001 23.5C35.8001 23.1 35.8001 22.5 36.2001 22.1L46.2 12.1C46.6 11.7 47.2 11.7 47.6001 12.1C48.0001 12.5 48 13.1 47.6001 13.5L37.6001 23.5C37.4001 23.7 37.2 23.8 36.9 23.8Z" fill="#D1D4D1"/>
<path d="M16.3 44.7C16 44.7 15.7999 44.6001 15.6 44.4C15.2001 44.0001 15.2001 43.4001 15.6 43L22.2 36.4C22.6 36 23.2 36 23.6001 36.4C24 36.8 24 37.4 23.6001 37.8L17.0001 44.4C16.9 44.6001 16.6 44.7 16.3 44.7Z" fill="#D1D4D1"/>
<path d="M45.3 46.3C45 46.3 44.7999 46.2 44.6 46L36.3 37.7C35.9 37.3 35.9 36.7 36.3 36.2999C36.6999 35.8998 37.2999 35.9 37.7 36.2999L46 44.5999C46.4 44.9999 46.4 45.5999 46 46C45.9 46.2 45.6 46.3 45.3 46.3Z" fill="#D1D4D1"/>
<path d="M22.9 23.9001C22.6 23.9001 22.3999 23.8001 22.2 23.6001L10.6 11.9001C10.2 11.5001 10.2 10.9001 10.6 10.5C10.9999 10.0999 11.5999 10.1001 12 10.5L23.6 22.3C24 22.6999 24 23.2999 23.6 23.7C23.4 23.9001 23.2 23.9001 22.9 23.9001Z" fill="#D1D4D1"/>
<path d="M30 19C23.9 19 18.9999 23.8999 18.9999 30C18.9999 36.1001 23.8999 41 30 41C36.1001 41 41 36.1001 41 30C41 23.8999 36.0999 19 30 19Z" fill="#D25627"/>
<path d="M52 0C47.5999 0 43.9999 3.6 43.9999 8.00004C43.9999 12.4001 47.5999 16.0001 52 16.0001C56.4 16.0001 60 12.4 60 8.00004C60 3.60012 56.4 0 52 0Z" fill="#3B97D3"/>
<path d="M6.99996 0C3.09996 0 0 3.09996 0 6.99996C0 10.9 3.09996 13.9999 6.99996 13.9999C10.9 13.9999 13.9999 10.9 13.9999 6.99996C13.9999 3.09996 10.9 0 6.99996 0Z" fill="#F29C1F"/>
<path d="M51 42C46 42 42 46 42 51C42 56 46 60 51 60C56 60 60 56 60 51C60 46 56 42 51 42Z" fill="#CC66A1"/>
<path d="M9.99996 40C4.5 40 0 44.5 0 50C0 55.5001 4.5 60 9.99996 60C15.4999 60 19.9999 55.5 19.9999 50C19.9999 44.5001 15.5 40 9.99996 40Z" fill="#71C285"/>
<path d="M24 31C23.4 31 23.0001 30.6 23.0001 30C23.0001 26.1 26.1 23 30 23C30.6 23 31 23.4 31 24C31 24.6 30.6 25 30 25C27.2001 25 25 27.1999 25 30C25 30.6 24.6 31 24 31Z" fill="#A54123"/>
<path d="M49 8.99999C48.4 8.99999 48 8.60002 48 8.00002C48 5.80006 49.8 4.00006 52 4.00006C52.6 4.00006 52.9999 4.40002 52.9999 5.00002C52.9999 5.60002 52.6 5.99998 52 5.99998C50.8999 5.99998 49.9999 6.89998 49.9999 8.00002C50 8.60002 49.6 8.99999 49 8.99999Z" fill="#2D769E"/>
<path d="M5.00008 8.00003C4.40008 8.00003 4.00012 7.60006 4.00012 7.00006C4.00012 5.30002 5.30008 4.00006 7.00012 4.00006C7.60013 4.00006 8.00009 4.40002 8.00009 5.00002C8.00009 5.60002 7.60001 5.99998 7.00001 5.99998C6.40001 5.99998 6.00005 6.39995 6.00005 6.99995C6.00005 7.59995 5.60008 8.00003 5.00008 8.00003Z" fill="#DB8B28"/>
<path d="M47 52C46.4 52 46.0001 51.6 46.0001 51C46.0001 48.2001 48.2 46 51.0001 46C51.6001 46 52.0001 46.3999 52.0001 46.9999C52.0001 47.5999 51.6001 47.9999 51.0001 47.9999C49.3001 47.9999 48.0001 49.2999 48.0001 50.9999C48 51.6 47.6 52 47 52Z" fill="#AD508A"/>
<path d="M5.00008 51C4.40008 51 4.00012 50.6 4.00012 50C4.00012 46.7 6.70012 44 10.0001 44C10.6001 44 11.0001 44.4 11.0001 45C11.0001 45.6 10.6001 45.9999 10.0001 45.9999C7.80016 45.9999 6.00016 47.7999 6.00016 49.9999C6.00004 50.6 5.60008 51 5.00008 51Z" fill="#599967"/>
</svg>
